<svg viewBox="0 0 48 48" fill="none" xmlns="http://www.w3.org/2000/svg">
  <!-- Octopus head -->
  <ellipse cx="24" cy="18" rx="14" ry="12" fill="currentColor" opacity="0.9"/>

  <!-- Robot visor/eye area -->
  <rect x="12" y="13" width="24" height="8" rx="4" fill="currentColor" opacity="0.15"/>
  <rect x="12" y="13" width="24" height="8" rx="4" stroke="currentColor" stroke-width="1.5" fill="none" opacity="0.4"/>

  <!-- Eyes -->
  <circle cx="18" cy="17" r="3" fill="currentColor" opacity="0.2"/>
  <circle cx="30" cy="17" r="3" fill="currentColor" opacity="0.2"/>
  <circle cx="18" cy="17" r="1.5" fill="currentColor"/>
  <circle cx="30" cy="17" r="1.5" fill="currentColor"/>

  <!-- Antenna -->
  <line x1="24" y1="6" x2="24" y2="2" stroke="currentColor" stroke-width="1.5" stroke-linecap="round"/>
  <circle cx="24" cy="2" r="1.5" fill="currentColor"/>

  <!-- Tentacles -->
  <!-- Left tentacles -->
  <path d="M12 26 Q6 32 4 40" stroke="currentColor" stroke-width="2.5" stroke-linecap="round" fill="none" opacity="0.85"/>
  <path d="M14 27 Q10 34 10 42" stroke="currentColor" stroke-width="2.5" stroke-linecap="round" fill="none" opacity="0.85"/>
  <path d="M17 28 Q15 36 16 44" stroke="currentColor" stroke-width="2.5" stroke-linecap="round" fill="none" opacity="0.85"/>

  <!-- Right tentacles -->
  <path d="M36 26 Q42 32 44 40" stroke="currentColor" stroke-width="2.5" stroke-linecap="round" fill="none" opacity="0.85"/>
  <path d="M34 27 Q38 34 38 42" stroke="currentColor" stroke-width="2.5" stroke-linecap="round" fill="none" opacity="0.85"/>
  <path d="M31 28 Q33 36 32 44" stroke="currentColor" stroke-width="2.5" stroke-linecap="round" fill="none" opacity="0.85"/>

  <!-- Center tentacles -->
  <path d="M22 29 Q21 37 20 46" stroke="currentColor" stroke-width="2.5" stroke-linecap="round" fill="none" opacity="0.85"/>
  <path d="M26 29 Q27 37 28 46" stroke="currentColor" stroke-width="2.5" stroke-linecap="round" fill="none" opacity="0.85"/>

  <!-- Tech details on head -->
  <circle cx="24" cy="24" r="1" fill="currentColor" opacity="0.5"/>
  <line x1="20" y1="24" x2="22" y2="24" stroke="currentColor" stroke-width="0.75" opacity="0.5"/>
  <line x1="26" y1="24" x2="28" y2="24" stroke="currentColor" stroke-width="0.75" opacity="0.5"/>
</svg>
